<svg version="1.2" xmlns="http://www.w3.org/2000/svg" viewBox="0 0 400 400" width="400" height="400"><style></style><path fill-rule="evenodd" d="m71.4 200.3q25.5-38.7 63.8-57.9-10.2 17-10.2 36.9 0 17.5 8.2 33.3 8.2 15.8 22.8 26.1l-13.1 23.1q-43.5-19.2-71.5-61.5zm128.6-55.2q-14.4 0-24.6 10.1-10.2 10-10.2 24.1 0 3.3-2.4 5.6-2.3 2.3-5.7 2.3-3.3 0-5.6-2.3-2.4-2.3-2.4-5.6 0-20.5 15-35.2 15-14.7 35.9-14.7 3.3 0 5.7 2.3 2.3 2.3 2.3 5.6 0 3.3-2.3 5.5-2.4 2.3-5.7 2.3zm66.1-43.6q-0.5-0.3-3.2-1.9-2.8-1.6-5.3-3-2.5-1.5-5.5-3.1-3-1.5-5.2-2.5-2.2-1-3-1-3.1 0-4.7 2.6l-9.1 15.9q-15.2-2.7-30.1-2.7-45 0-83 22.3-38 22.3-63.7 60.9-3.3 5.1-3.3 11.3 0 6.2 3.3 11.3 14.8 22.5 35 40.2 20.1 17.8 44.1 28.4-7.4 12.3-7.4 14.3 0 3 2.7 4.6 20.4 11.5 22.4 11.5 3 0 4.7-2.6l8.2-14.6q17.7-31.1 52.9-93.1 35.2-62 52.7-92.9 0.2-0.3 0.2-1.5 0-2.8-2.7-4.4zm7.6 64l-46.9 82.4q21.7-8.2 35-27 13.2-18.8 13.2-41.6 0-6.4-1.3-13.8zm73 23.5q-9.6-15.6-24.2-30.2-14.7-14.6-30.6-25.1l-10.5 18.3q27.9 18.9 47.2 48.3-20.3 30.9-50.5 50.4-30.2 19.5-65.7 22.5l-12.4 21.6q37.2 0 70.2-15.6 33.1-15.6 58.2-43.8 11.7-13.3 18.3-23.8 3.3-5.6 3.3-11.3 0-5.7-3.3-11.3z"/></svg>