<svg version="1.2" xmlns="http://www.w3.org/2000/svg" viewBox="0 0 400 400" width="400" height="400"><style></style><path fill-rule="evenodd" d="m272.7 258q-33.5 21.4-72.7 21.4-39.2 0-72.7-21.4-33.6-21.4-55.9-57.5 25.5-41.6 63.8-62.2-10.2 18.3-10.2 39.6 0 32.6 22 55.8 22 23.1 53 23.1 31 0 53-23.1 22-23.2 22-55.8 0-21.3-10.2-39.6 38.3 20.6 63.8 62.2-22.3 36.1-55.9 57.5zm-72.7-116.7q-14.4 0-24.6 10.7-10.2 10.8-10.2 25.9 0 3.5-2.4 6-2.3 2.5-5.7 2.5-3.3 0-5.6-2.5-2.4-2.5-2.4-6 0-22 15-37.8 15-15.7 35.9-15.7 3.3 0 5.7 2.4 2.3 2.5 2.3 6 0 3.5-2.3 6-2.4 2.5-5.7 2.5zm146.7 47q-23.5-40.3-63.1-64.8-39.6-24.5-83.6-24.5-44 0-83.6 24.5-39.6 24.5-63.1 64.8-3.3 6.2-3.3 12.2 0 6 3.3 12.1 23.5 40.4 63.1 64.9 39.6 24.4 83.6 24.4 44 0 83.6-24.4 39.6-24.4 63.1-64.9 3.3-6.1 3.3-12.1 0-6-3.3-12.2z"/></svg>