<?xml version="1.0" encoding="UTF-8" standalone="no"?>
<!DOCTYPE svg PUBLIC "-//W3C//DTD SVG 1.1//EN" "http://www.w3.org/Graphics/SVG/1.1/DTD/svg11.dtd">
<svg id="scoregraph_svg" viewBox="-10 -10 100 80" xmlns="http://www.w3.org/2000/svg" xmlns:xlink="http://www.w3.org/1999/xlink">
    <line x1="0" x2="0" y1="-1" y2="60" stroke="white" stroke-width="0.5" />
    <line x1="0" x2="91" y1="60" y2="60" stroke="white" stroke-width="0.5" />

    <text id="svg_x1" class="svg_tx" style="--x:1" y="62" alignment-baseline="before-edge" text-anchor="middle" font-size="2" fill="white">Game 1</text>
    <text id="svg_x2" class="svg_tx" style="--x:2" y="62" alignment-baseline="before-edge" text-anchor="middle" font-size="2" fill="white">Game 2</text>
    <text id="svg_x3" class="svg_tx" style="--x:3" y="62" alignment-baseline="before-edge" text-anchor="middle" font-size="2" fill="white">Game 3</text>
    <text id="svg_x4" class="svg_tx" style="--x:4" y="62" alignment-baseline="before-edge" text-anchor="middle" font-size="2" fill="white">Game 4</text>
    <text id="svg_x5" class="svg_tx" style="--x:5" y="62" alignment-baseline="before-edge" text-anchor="middle" font-size="2" fill="white">Game 5</text>
    <text id="svg_x6" class="svg_tx" style="--x:6" y="62" alignment-baseline="before-edge" text-anchor="middle" font-size="2" fill="white">Game 6</text>
    
    <text id="svg_y6" x="-3" y="60" alignment-baseline="middle" text-anchor="end" font-size="2" fill="white">0</text>
    <text id="svg_y5" x="-3" y="50" alignment-baseline="middle" text-anchor="end" font-size="2" fill="white">10</text>
    <text id="svg_y4" x="-3" y="40" alignment-baseline="middle" text-anchor="end" font-size="2" fill="white">20</text>
    <text id="svg_y3" x="-3" y="30" alignment-baseline="middle" text-anchor="end" font-size="2" fill="white">30</text>
    <text id="svg_y2" x="-3" y="20" alignment-baseline="middle" text-anchor="end" font-size="2" fill="white">40</text>
    <text id="svg_y1" x="-3" y="10" alignment-baseline="middle" text-anchor="end" font-size="2" fill="white">50</text>
    <text id="svg_y0" x="-3" y="0" alignment-baseline="middle" text-anchor="end" font-size="2" fill="white">60</text>

    <g id="svg_xg" transform="translate(0,60) scale(15,2)">
        <path vector-effect="non-scaling-stroke" d="m0,0 l0,1 m1,0 l0,-1 m1,0 l0,1 m1,0 l0,-1 m1,0 l0,1 m1,0 l0,-1 m1,0 l0,1" stroke="white" stroke-width="1" fill="none" />
    </g>
    <g id="svg_yg" transform="scale(-2,10)">
        <path vector-effect="non-scaling-stroke" d="m0,0 l1,0 m0,1 l-1,0 m0,1 l1,0 m0,1 l-1,0 m0,1 l1,0 m0,1 l-1,0 m0,1 l1,0" stroke="white" stroke-width="1" fill="none" />
    </g>
    
    <g id="svg_scores" transform="translate(0,60) scale(1,-1)">
        <!-- score line sample
        <polyline vector-effect="non-scaling-stroke" points="0,0 10,5 20,14 30,20 40,32 50,39 60,45" stroke="red" stroke-width="0.5" fill="none" />
        <circle cx="10" cy="5" r="1" fill="red" />
        -->
    </g>
</svg>